<?xml version="1.0" encoding="UTF-8"?>
<!DOCTYPE svg PUBLIC "-//W3C//DTD SVG 1.1//EN" "http://www.w3.org/Graphics/SVG/1.1/DTD/svg11.dtd">
<!-- Creator: CorelDRAW X7 -->
<svg xmlns="http://www.w3.org/2000/svg" xml:space="preserve" width="24px" height="24px" version="1.1" style="shape-rendering:geometricPrecision; text-rendering:geometricPrecision; image-rendering:optimizeQuality; fill-rule:evenodd; clip-rule:evenodd"
viewBox="0 0 24000 24000"
 xmlns:xlink="http://www.w3.org/1999/xlink">
 <defs>
  <style type="text/css">
   <![CDATA[
    .fil0 {fill:none}
    .fil1 {fill:#5AAAFA}
    .fil3 {fill:#8CD211}
    .fil2 {fill:#777677;fill-rule:nonzero}
   ]]>
  </style>
 </defs>
 <g id="Camada_x0020_1">
  <metadata id="CorelCorpID_0Corel-Layer"/>
  <g id="_1822234356160">
   <rect class="fil0" x="-1" y="-1" width="24002" height="24002"/>
   <g>
    <path class="fil1" d="M2116 6798l0 6808c181,218 164,224 539,223 260,-2 520,-2 780,-2l-4 658c-724,0 -941,133 -1100,396 -278,454 -310,919 -68,1393 188,369 343,521 1151,521 121,486 69,921 560,1487 984,1136 2686,1031 3507,34 195,-236 239,-348 404,-645 355,628 655,1101 1501,1341 1426,404 2791,-603 2931,-1928 40,-380 -8,-293 425,-289 944,7 1942,-37 2877,2 128,609 86,1011 677,1603 946,950 2378,920 3276,28 495,-492 543,-784 692,-1626 672,-84 1146,-312 1440,-879 106,-207 115,-379 196,-562l0 -4960c-728,-745 -1418,-1417 -2146,-2143 -355,-354 -738,-829 -1163,-965 -355,-114 -1597,-62 -2062,-62 -1122,2 -1225,-231 -1224,890 0,854 40,5979 -14,6364l-3280 0 -3 -658c903,4 1452,75 2063,-398 603,-467 569,-1189 567,-1907 -7,-1649 -9,-3300 -22,-4949 432,2 863,-1 1295,0 346,0 926,100 1022,-211 35,-116 38,-1076 6,-1202 -88,-337 -636,-237 -990,-237 -625,0 -1903,-71 -2454,14 -354,56 -585,277 -715,516 -163,298 -104,738 -115,1119l-9467 0c-701,1 -851,-95 -1082,226zm18796 4062l322 -3c13,-273 -222,-434 -552,-746 -1160,-1097 -608,-885 -1719,-896 -433,-5 -905,-13 -1336,4l-13 1638 493 4 2805 -1zm-15280 5636c-393,149 -203,737 209,606 399,-127 227,-772 -209,-606zm12198 -10c-385,124 -226,757 225,620 402,-121 183,-752 -225,-620zm-7915 3c-398,146 -192,744 216,616 421,-132 200,-768 -216,-616zm-5152 -2665l-669 7 5 588c33,91 -20,75 373,65 155,-5 310,-3 464,-3 309,0 620,-10 928,-5 604,10 1211,2 1816,2 1217,-1 2439,19 3653,0l4 -633 -6574 -21zm-1987 -1340l3 681 1286 -6c68,-187 28,-446 28,-649l2 -4619 -3 -656 -1317 -4 2 656 -1 4597zm14952 3351c-476,113 -894,584 -748,1185 304,1240 2201,861 1924,-457 -94,-454 -601,-863 -1176,-728zm-7938 13c-1301,348 -749,2228 488,1901 1244,-328 782,-2241 -488,-1901zm-4275 -16c-1302,374 -776,2200 447,1931 472,-104 876,-596 740,-1207 -97,-436 -619,-887 -1187,-724zm-45 -657c-820,152 -1533,877 -1357,1883 142,801 891,1543 1889,1363 814,-146 1559,-898 1364,-1909 -156,-807 -887,-1525 -1896,-1337zm4231 7c-792,166 -1487,945 -1288,1942 154,775 936,1497 1947,1288 793,-165 1478,-955 1281,-1966 -152,-787 -957,-1469 -1940,-1264zm7919 -2c-797,166 -1511,933 -1296,1949 166,776 968,1498 1957,1280 2132,-467 1438,-3670 -661,-3229zm-14805 196c-70,135 -76,483 34,627 129,170 378,132 619,132 115,-31 73,-100 188,-329 72,-145 120,-232 196,-354 77,-89 191,-211 240,-301 -340,5 -1231,-151 -1277,225zm17034 83c98,236 236,373 303,676 692,-7 1080,-405 1090,-1092l-1 -1872c-363,-15 -952,115 -988,-306 -40,-472 610,-350 970,-359l19 -986c-1238,-30 -2508,3 -3748,0 -678,-1 -538,-180 -540,-1313 0,-308 2,-618 0,-927 -4,-414 -66,-558 234,-722l1911 -10c-105,-87 -341,-347 -450,-460 -216,-226 -417,-196 -768,-197 -608,-3 -1325,-31 -1922,8l5 5709c4,2297 407,1310 -4281,1545l248 309 330 645c4,6 11,17 18,25l3456 2c78,-300 174,-421 300,-671 486,-509 902,-977 1884,-982 968,-6 1422,431 1930,978zm-11971 431c81,-122 132,-259 228,-387 89,-121 203,-230 272,-350l-984 -2c96,158 331,325 484,739zm5450 -9149l-11 286c-189,254 -293,191 -647,210l-1 648 -3 4608 5 673c821,10 1310,-269 1308,-1097 0,-968 -3,-1938 -11,-2905 -6,-667 -85,-2379 53,-2914 134,-123 129,-202 346,-292 214,-89 1604,-44 1916,-53l5 -318c-683,-10 -1363,7 -2039,-1 -1122,-14 -918,59 -921,1155zm-1323 5753l1 -4611 3 -652 -1321 0 0 660 2 4619 0 648 1318 6 -3 -670zm-1975 -4605l-1 -649 -1315 -7 -4 658 5 5258 1310 -2 5 -5258zm-1979 -646l-1328 -1 11 5907 1301 6 14 -5266 -1321 2 1327 -2 -4 -646zm-1977 648l-1 -660 -1320 4 0 653 3 5250 1306 10 12 -5257z"/>
    <path class="fil2" d="M3117 6572l4401 -2355c96,-51 206,-44 293,11l4335 2344 -1340 0 -3151 -1704 -3185 1704 -1272 0c-28,0 -55,0 -81,0z"/>
    <path class="fil3" d="M17520 12322l2022 0c160,0 289,130 289,290l0 505c0,160 -129,289 -289,289l-2022 1c-161,-1 -290,-130 -290,-290l0 -505c0,-160 129,-290 290,-290z"/>
   </g>
  </g>
 </g>
</svg>
